<?xml version="1.0" encoding="UTF-8"?>
<!-- Created with Inkscape (http://www.inkscape.org/) -->
<svg width="97.896mm" height="97.896mm" version="1.1" viewBox="0 0 97.896 97.896" xmlns="http://www.w3.org/2000/svg" xmlns:cc="http://creativecommons.org/ns#" xmlns:dc="http://purl.org/dc/elements/1.1/" xmlns:rdf="http://www.w3.org/1999/02/22-rdf-syntax-ns#">
 <metadata>
  <rdf:RDF>
   <cc:Work rdf:about="">
    <dc:format>image/svg+xml</dc:format>
    <dc:type rdf:resource="http://purl.org/dc/dcmitype/StillImage"/>
    <dc:title/>
   </cc:Work>
  </rdf:RDF>
 </metadata>
 <g transform="translate(-59.531 -73.427)">
  <rect x="33.479" y="62.434" width="150" height="150" fill="none"/>
 </g>
 <g transform="translate(-26.052 -10.993)" display="none">
  <g transform="translate(-37.171 -62.434)" font-family="sans-serif" font-size="40px" letter-spacing="0px" word-spacing="0px">
   <flowRoot transform="matrix(.26458 0 0 .26458 18.442 1.6036)" fill="#43beac" style="line-height:1.25" xml:space="preserve"><flowRegion fill="#43beac"><rect x="130" y="662.52" width="106.46" height="121.01" fill="#43beac"/></flowRegion><flowPara font-family="'Barlow Condensed'" font-size="96px" font-stretch="condensed" style="font-feature-settings:normal;font-variant-caps:normal;font-variant-ligatures:normal;font-variant-numeric:normal">MY</flowPara></flowRoot>
   <flowRoot transform="matrix(.26458 0 0 .26458 17.105 1.6036)" fill="#000000" style="line-height:1.25" xml:space="preserve"><flowRegion><rect x="255" y="662.52" width="420" height="120"/></flowRegion><flowPara fill="#ffffff" font-family="'Barlow Condensed'" font-size="96px" font-stretch="condensed" style="font-feature-settings:normal;font-variant-caps:normal;font-variant-ligatures:normal;font-variant-numeric:normal">REFACTOR</flowPara></flowRoot>
  </g>
 </g>
 <g transform="translate(-59.531 -73.427)">
  <path transform="matrix(.26458 0 0 .26458 59.531 73.427)" d="m125 0v80 20h145v170h-145v10.871l62.5 45.295 60.482 43.834h122.02v-370h-245zm-125 125v245h100v-100-35-110h-100z" color="#000000" color-rendering="auto" dominant-baseline="auto" fill="#fff" image-rendering="auto" shape-rendering="auto" solid-color="#000000" style="font-feature-settings:normal;font-variant-alternates:normal;font-variant-caps:normal;font-variant-ligatures:normal;font-variant-numeric:normal;font-variant-position:normal;isolation:auto;mix-blend-mode:normal;shape-padding:0;text-decoration-color:#000000;text-decoration-line:none;text-decoration-style:solid;text-indent:0;text-orientation:mixed;text-transform:none;white-space:normal"/>
  <rect x="59.531" y="73.427" width="26.458" height="26.458" fill="#43beac"/>
 </g>
</svg>
